<svg width="328" height="96" viewBox="0 0 328 96" fill="none" xmlns="http://www.w3.org/2000/svg">
<g filter="url(#filter0_d_5_21)">
<g filter="url(#filter1_d_5_21)">
<rect x="10" y="5" width="308" height="72" rx="16" fill="#FAFBD4"/>
<rect x="7.5" y="2.5" width="313" height="77" rx="18.5" stroke="black" stroke-width="5"/>
</g>
<path d="M51.7372 37.7656H47.3821C47.3026 37.2022 47.1402 36.7017 46.8949 36.2642C46.6496 35.8201 46.3348 35.4422 45.9503 35.1307C45.5658 34.8191 45.1217 34.5805 44.6179 34.4148C44.1207 34.2491 43.5805 34.1662 42.9972 34.1662C41.9432 34.1662 41.0251 34.428 40.2429 34.9517C39.4607 35.4687 38.8542 36.2244 38.4233 37.2188C37.9924 38.2064 37.777 39.4062 37.777 40.8182C37.777 42.2699 37.9924 43.4896 38.4233 44.4773C38.8608 45.465 39.4706 46.2107 40.2528 46.7145C41.035 47.2183 41.9399 47.4702 42.9673 47.4702C43.544 47.4702 44.0777 47.3939 44.5682 47.2415C45.0653 47.089 45.5062 46.867 45.8906 46.5753C46.2751 46.277 46.5933 45.9157 46.8452 45.4915C47.1037 45.0672 47.2827 44.5833 47.3821 44.0398L51.7372 44.0597C51.6245 44.9943 51.3428 45.8958 50.892 46.7642C50.4479 47.6259 49.848 48.3982 49.0923 49.081C48.3433 49.7571 47.4484 50.294 46.4077 50.6918C45.3736 51.0829 44.2036 51.2784 42.8977 51.2784C41.0814 51.2784 39.4574 50.8674 38.0256 50.0455C36.6004 49.2235 35.4735 48.0336 34.6449 46.4759C33.8229 44.9181 33.4119 43.0322 33.4119 40.8182C33.4119 38.5975 33.8295 36.7083 34.6648 35.1506C35.5 33.5928 36.6335 32.4062 38.0653 31.5909C39.4972 30.7689 41.108 30.358 42.8977 30.358C44.0777 30.358 45.1714 30.5237 46.179 30.8551C47.1932 31.1866 48.0914 31.6705 48.8736 32.3068C49.6558 32.9366 50.2921 33.7088 50.7827 34.6236C51.2798 35.5384 51.598 36.5857 51.7372 37.7656ZM73.5376 40.8182C73.5376 43.0388 73.1167 44.928 72.2749 46.4858C71.4396 48.0436 70.2995 49.2334 68.8544 50.0554C67.416 50.8707 65.7985 51.2784 64.0021 51.2784C62.1925 51.2784 60.5684 50.8674 59.13 50.0455C57.6915 49.2235 56.5547 48.0336 55.7195 46.4759C54.8842 44.9181 54.4666 43.0322 54.4666 40.8182C54.4666 38.5975 54.8842 36.7083 55.7195 35.1506C56.5547 33.5928 57.6915 32.4062 59.13 31.5909C60.5684 30.7689 62.1925 30.358 64.0021 30.358C65.7985 30.358 67.416 30.7689 68.8544 31.5909C70.2995 32.4062 71.4396 33.5928 72.2749 35.1506C73.1167 36.7083 73.5376 38.5975 73.5376 40.8182ZM69.1726 40.8182C69.1726 39.3797 68.9572 38.1667 68.5263 37.179C68.102 36.1913 67.5021 35.4422 66.7266 34.9318C65.951 34.4214 65.0429 34.1662 64.0021 34.1662C62.9614 34.1662 62.0533 34.4214 61.2777 34.9318C60.5021 35.4422 59.8989 36.1913 59.468 37.179C59.0438 38.1667 58.8317 39.3797 58.8317 40.8182C58.8317 42.2566 59.0438 43.4697 59.468 44.4574C59.8989 45.4451 60.5021 46.1941 61.2777 46.7045C62.0533 47.215 62.9614 47.4702 64.0021 47.4702C65.0429 47.4702 65.951 47.215 66.7266 46.7045C67.5021 46.1941 68.102 45.4451 68.5263 44.4574C68.9572 43.4697 69.1726 42.2566 69.1726 40.8182ZM93.7596 30.6364V51H90.0408L81.1815 38.1832H81.0323V51H76.7269V30.6364H80.5053L89.2951 43.4432H89.4741V30.6364H93.7596ZM114.349 30.6364V51H110.631L101.771 38.1832H101.622V51H97.3168V30.6364H101.095L109.885 43.4432H110.064V30.6364H114.349ZM117.907 51V30.6364H131.628V34.1861H122.212V39.0384H130.922V42.5881H122.212V47.4503H131.668V51H117.907ZM153.018 37.7656H148.663C148.584 37.2022 148.421 36.7017 148.176 36.2642C147.931 35.8201 147.616 35.4422 147.232 35.1307C146.847 34.8191 146.403 34.5805 145.899 34.4148C145.402 34.2491 144.862 34.1662 144.278 34.1662C143.224 34.1662 142.306 34.428 141.524 34.9517C140.742 35.4687 140.135 36.2244 139.705 37.2188C139.274 38.2064 139.058 39.4062 139.058 40.8182C139.058 42.2699 139.274 43.4896 139.705 44.4773C140.142 45.465 140.752 46.2107 141.534 46.7145C142.316 47.2183 143.221 47.4702 144.249 47.4702C144.825 47.4702 145.359 47.3939 145.849 47.2415C146.347 47.089 146.787 46.867 147.172 46.5753C147.556 46.277 147.875 45.9157 148.126 45.4915C148.385 45.0672 148.564 44.5833 148.663 44.0398L153.018 44.0597C152.906 44.9943 152.624 45.8958 152.173 46.7642C151.729 47.6259 151.129 48.3982 150.374 49.081C149.625 49.7571 148.73 50.294 147.689 50.6918C146.655 51.0829 145.485 51.2784 144.179 51.2784C142.363 51.2784 140.739 50.8674 139.307 50.0455C137.882 49.2235 136.755 48.0336 135.926 46.4759C135.104 44.9181 134.693 43.0322 134.693 40.8182C134.693 38.5975 135.111 36.7083 135.946 35.1506C136.781 33.5928 137.915 32.4062 139.347 31.5909C140.778 30.7689 142.389 30.358 144.179 30.358C145.359 30.358 146.453 30.5237 147.46 30.8551C148.474 31.1866 149.373 31.6705 150.155 32.3068C150.937 32.9366 151.573 33.7088 152.064 34.6236C152.561 35.5384 152.879 36.5857 153.018 37.7656ZM155.33 34.1861V30.6364H172.055V34.1861H165.82V51H161.565V34.1861H155.33ZM185.873 51L180.047 30.6364H184.75L188.12 44.7855H188.289L192.008 30.6364H196.035L199.744 44.8153H199.923L203.294 30.6364H207.997L202.17 51H197.974L194.096 37.6861H193.937L190.069 51H185.873ZM211.76 51H207.147L214.176 30.6364H219.725L226.745 51H222.131L217.03 35.2898H216.871L211.76 51ZM211.472 42.9957H222.37V46.3565H211.472V42.9957ZM229.196 51V30.6364H233.501V47.4503H242.231V51H229.196ZM245.082 51V30.6364H249.388V47.4503H258.118V51H245.082ZM260.969 51V30.6364H274.691V34.1861H265.275V39.0384H273.985V42.5881H265.275V47.4503H274.73V51H260.969ZM277.338 34.1861V30.6364H294.062V34.1861H287.828V51H283.572V34.1861H277.338Z" fill="black"/>
</g>
<defs>
<filter id="filter0_d_5_21" x="1" y="0" width="326" height="90" filterUnits="userSpaceOnUse" color-interpolation-filters="sRGB">
<feFlood flood-opacity="0" result="BackgroundImageFix"/>
<feColorMatrix in="SourceAlpha" type="matrix" values="0 0 0 0 0 0 0 0 0 0 0 0 0 0 0 0 0 0 127 0" result="hardAlpha"/>
<feOffset dy="4"/>
<feGaussianBlur stdDeviation="2"/>
<feComposite in2="hardAlpha" operator="out"/>
<feColorMatrix type="matrix" values="0 0 0 0 0 0 0 0 0 0 0 0 0 0 0 0 0 0 0.25 0"/>
<feBlend mode="normal" in2="BackgroundImageFix" result="effect1_dropShadow_5_21"/>
<feBlend mode="normal" in="SourceGraphic" in2="effect1_dropShadow_5_21" result="shape"/>
</filter>
<filter id="filter1_d_5_21" x="0" y="0" width="328" height="96" filterUnits="userSpaceOnUse" color-interpolation-filters="sRGB">
<feFlood flood-opacity="0" result="BackgroundImageFix"/>
<feColorMatrix in="SourceAlpha" type="matrix" values="0 0 0 0 0 0 0 0 0 0 0 0 0 0 0 0 0 0 127 0" result="hardAlpha"/>
<feOffset dy="9"/>
<feGaussianBlur stdDeviation="2.5"/>
<feComposite in2="hardAlpha" operator="out"/>
<feColorMatrix type="matrix" values="0 0 0 0 0 0 0 0 0 0 0 0 0 0 0 0 0 0 0.25 0"/>
<feBlend mode="normal" in2="BackgroundImageFix" result="effect1_dropShadow_5_21"/>
<feBlend mode="normal" in="SourceGraphic" in2="effect1_dropShadow_5_21" result="shape"/>
</filter>
</defs>
</svg>
